<svg data-logo="logo" xmlns="http://www.w3.org/2000/svg" viewBox="0 0 228 43">
            <g id="logogram" transform="translate(0, 1) rotate(0)"><path d="M37.4552 2.39882C38.3804 1.43634 39.6368 0.89563 40.9453 0.89563C46.8318 0.89563 52.3794 0.895633 57.8425 0.895644C68.8303 0.895667 74.3325 14.7158 66.5629 22.7986L49.639 40.4046C48.862 41.2129 47.5335 40.6405 47.5335 39.4974V23.9906L49.4894 21.9559C51.0433 20.3393 49.9427 17.5753 47.7452 17.5753H22.8667L37.4552 2.39882Z" fill="#1976D2"></path><path d="M32.945 39.1672C32.0198 40.1296 30.7634 40.6703 29.455 40.6703C23.5684 40.6703 18.0208 40.6703 12.5577 40.6703C1.56991 40.6703 -3.93229 26.8501 3.83728 18.7674L20.7612 1.16133C21.5382 0.353051 22.8667 0.925506 22.8667 2.06858L22.8667 17.5753L20.9109 19.6101C19.3569 21.2266 20.4575 23.9907 22.6551 23.9907L47.5335 23.9906L32.945 39.1672Z" fill="#1976D2"></path></g>
            <g id="logotype" transform="translate(77, 8)"><path fill="#1976d2" d="M12.60 27L6.84 27L15.54 1.54L22.37 1.54L31.29 27L25.50 27L21.42 14.71Q20.68 12.34 19.92 9.51Q19.16 6.68 18.32 3.33L18.32 3.33L19.45 3.33Q18.65 6.70 17.94 9.54Q17.23 12.39 16.53 14.71L16.53 14.71L12.60 27ZM25.86 21.09L12.27 21.09L12.27 17.00L25.86 17.00L25.86 21.09ZM37.17 27L32.04 27L32.04 7.89L37.17 7.89L37.17 27ZM34.61 5.40L34.61 5.40Q33.44 5.40 32.62 4.63Q31.80 3.86 31.80 2.77L31.80 2.77Q31.80 1.67 32.62 0.90Q33.44 0.13 34.61 0.13L34.61 0.13Q35.77 0.13 36.60 0.90Q37.43 1.66 37.43 2.77L37.43 2.77Q37.43 3.86 36.60 4.63Q35.77 5.40 34.61 5.40ZM56.14 27L45.39 27L45.39 1.54L55.49 1.54Q58.29 1.54 60.16 2.38Q62.03 3.23 62.96 4.70Q63.89 6.17 63.89 8.08L63.89 8.08Q63.89 9.59 63.30 10.70Q62.70 11.82 61.66 12.53Q60.63 13.24 59.31 13.55L59.31 13.55L59.31 13.81Q60.75 13.86 62.02 14.62Q63.30 15.38 64.09 16.74Q64.89 18.10 64.89 19.99L64.89 19.99Q64.89 21.99 63.89 23.58Q62.90 25.17 60.96 26.09Q59.02 27 56.14 27L56.14 27ZM50.60 15.81L50.60 22.71L55.11 22.71Q57.40 22.71 58.46 21.82Q59.52 20.93 59.52 19.50L59.52 19.50Q59.52 18.40 59.00 17.57Q58.48 16.75 57.52 16.28Q56.56 15.81 55.25 15.81L55.25 15.81L50.60 15.81ZM50.60 5.79L50.60 12.23L54.72 12.23Q55.83 12.23 56.72 11.83Q57.61 11.43 58.11 10.69Q58.61 9.94 58.61 8.92L58.61 8.92Q58.61 7.53 57.63 6.66Q56.65 5.79 54.82 5.79L54.82 5.79L50.60 5.79ZM72.73 27.24L72.73 27.24Q70.75 27.24 69.26 26.38Q67.77 25.51 66.96 23.90Q66.15 22.28 66.15 20.04L66.15 20.04L66.15 7.89L71.28 7.89L71.28 19.16Q71.28 20.93 72.20 21.94Q73.12 22.95 74.73 22.95L74.73 22.95Q75.82 22.95 76.66 22.48Q77.50 22.01 77.97 21.11Q78.44 20.22 78.44 18.95L78.44 18.95L78.44 7.89L83.56 7.89L83.56 27L78.73 27L78.66 22.23L78.95 22.23Q78.20 24.64 76.65 25.94Q75.10 27.24 72.73 27.24ZM90.79 27L85.66 27L85.66 7.89L90.79 7.89L90.79 27ZM88.23 5.40L88.23 5.40Q87.06 5.40 86.24 4.63Q85.42 3.86 85.42 2.77L85.42 2.77Q85.42 1.67 86.24 0.90Q87.06 0.13 88.23 0.13L88.23 0.13Q89.39 0.13 90.22 0.90Q91.05 1.66 91.05 2.77L91.05 2.77Q91.05 3.86 90.22 4.63Q89.39 5.40 88.23 5.40ZM92.87 1.54L98.00 1.54L98.00 27L92.87 27L92.87 1.54ZM107.07 27.32L107.07 27.32Q104.87 27.32 103.10 26.19Q101.33 25.05 100.30 22.86Q99.28 20.66 99.28 17.48L99.28 17.48Q99.28 14.22 100.34 12.03Q101.40 9.84 103.16 8.75Q104.92 7.65 107.04 7.65L107.04 7.65Q108.66 7.65 109.74 8.20Q110.81 8.75 111.48 9.55Q112.15 10.35 112.47 11.11L112.47 11.11L112.64 11.11L112.64 1.54L117.77 1.54L117.77 27L112.73 27L112.73 23.94L112.47 23.94Q112.13 24.71 111.46 25.49Q110.78 26.27 109.70 26.79Q108.63 27.32 107.07 27.32ZM108.64 23.21L108.64 23.21Q109.94 23.21 110.87 22.49Q111.79 21.77 112.27 20.48Q112.75 19.19 112.75 17.46L112.75 17.46Q112.75 15.72 112.28 14.45Q111.81 13.17 110.88 12.47Q109.96 11.76 108.64 11.76L108.64 11.76Q107.29 11.76 106.38 12.49Q105.47 13.23 105.00 14.51Q104.54 15.79 104.54 17.46L104.54 17.46Q104.54 19.14 105.01 20.44Q105.48 21.74 106.40 22.47Q107.31 23.21 108.64 23.21ZM128.50 27.38L128.50 27.38Q125.58 27.38 123.46 26.18Q121.34 24.98 120.20 22.78Q119.07 20.57 119.07 17.55L119.07 17.55Q119.07 14.59 120.20 12.37Q121.32 10.15 123.39 8.90Q125.46 7.65 128.24 7.65L128.24 7.65Q130.12 7.65 131.75 8.25Q133.37 8.85 134.60 10.06Q135.83 11.26 136.52 13.07Q137.22 14.88 137.22 17.34L137.22 17.34L137.22 18.78L121.17 18.78L121.17 15.57L134.70 15.57L132.31 16.42Q132.31 14.93 131.86 13.83Q131.41 12.73 130.51 12.12Q129.61 11.52 128.28 11.52L128.28 11.52Q126.96 11.52 126.03 12.13Q125.10 12.75 124.62 13.80Q124.14 14.85 124.14 16.20L124.14 16.20L124.14 18.47Q124.14 20.13 124.70 21.26Q125.25 22.39 126.25 22.95Q127.25 23.51 128.59 23.51L128.59 23.51Q129.49 23.51 130.23 23.26Q130.96 23.00 131.48 22.50Q132.00 21.99 132.28 21.26L132.28 21.26L136.93 22.13Q136.46 23.70 135.32 24.89Q134.17 26.08 132.46 26.73Q130.74 27.38 128.50 27.38ZM143.57 27L138.44 27L138.44 7.89L143.40 7.89L143.40 11.23L143.61 11.23Q144.14 9.45 145.37 8.54Q146.61 7.64 148.22 7.64L148.22 7.64Q148.61 7.64 149.07 7.68Q149.52 7.72 149.88 7.81L149.88 7.81L149.88 12.39Q149.54 12.27 148.89 12.20Q148.24 12.13 147.66 12.13L147.66 12.13Q146.49 12.13 145.55 12.64Q144.61 13.14 144.09 14.04Q143.57 14.93 143.57 16.13L143.57 16.13L143.57 27Z"></path></g>
            
          </svg>